<?xml version="1.0" encoding="utf-8"?>
<!-- Generator: Adobe Illustrator 14.0.0, SVG Export Plug-In . SVG Version: 6.00 Build 43363)  -->
<!DOCTYPE svg PUBLIC "-//W3C//DTD SVG 1.1//EN" "http://www.w3.org/Graphics/SVG/1.1/DTD/svg11.dtd">
<svg version="1.1" id="Ebene_1" xmlns="http://www.w3.org/2000/svg" xmlns:xlink="http://www.w3.org/1999/xlink" x="0px" y="0px"
	 width="141.73px" height="126.75px" viewBox="0 0 141.73 126.75" enable-background="new 0 0 141.73 126.75" xml:space="preserve">
<rect x="63.127" y="32.427" fill="#FEDB0A" width="15.477" height="15.467"/>
<rect x="78.604" y="16.941" fill="#FEDB0A" width="15.467" height="15.485"/>
<polygon fill="#FEDB0A" points="109.566,1.465 94.07,1.465 94.07,16.941 109.566,16.941 125.042,16.941 125.042,1.465 "/>
<polygon fill="#FEDB0A" points="125.042,16.941 125.042,32.427 125.042,47.894 140.519,47.894 140.519,32.427 140.519,16.941 "/>
<rect x="94.07" y="78.855" fill="#FEDB0A" width="15.496" height="15.477"/>
<rect x="78.604" y="94.332" fill="#FEDB0A" width="15.467" height="15.477"/>
<rect x="63.127" y="109.809" fill="#FEDB0A" width="15.477" height="15.477"/>
<polygon fill="#FEDB0A" points="109.566,47.894 109.566,63.38 109.566,78.855 125.042,78.855 125.042,63.38 125.042,47.894 "/>
<rect x="47.66" y="16.941" fill="#FEDB0A" width="15.467" height="15.485"/>
<polygon fill="#FEDB0A" points="32.165,1.465 16.688,1.465 16.688,16.941 32.165,16.941 47.66,16.941 47.66,1.465 "/>
<rect x="32.165" y="78.855" fill="#FEDB0A" width="15.495" height="15.477"/>
<rect x="47.66" y="94.332" fill="#FEDB0A" width="15.467" height="15.477"/>
<rect x="63.127" y="109.809" fill="#FEDB0A" width="15.477" height="15.477"/>
<g>
	<polygon fill="#FEDB0A" points="16.688,16.941 1.212,16.941 1.212,32.427 1.212,47.894 16.688,47.894 16.688,32.427 	"/>
	<polygon fill="#FEDB0A" points="16.688,47.894 16.688,63.38 16.688,78.855 32.165,78.855 32.165,63.38 32.165,47.894 	"/>
</g>
</svg>
