<?xml version="1.0" encoding="utf-8"?>
<!-- Generator: Adobe Illustrator 14.0.0, SVG Export Plug-In . SVG Version: 6.00 Build 43363)  -->
<!DOCTYPE svg PUBLIC "-//W3C//DTD SVG 1.1//EN" "http://www.w3.org/Graphics/SVG/1.1/DTD/svg11.dtd">
<svg version="1.1" id="Ebene_1" xmlns="http://www.w3.org/2000/svg" xmlns:xlink="http://www.w3.org/1999/xlink" x="0px" y="0px"
	 width="283.46px" height="283.46px" viewBox="0 0 283.46 283.46" enable-background="new 0 0 283.46 283.46" xml:space="preserve">
<g>
	<g>
		<path fill="#71AF63" d="M232.436,36.568c-35.707,24.104-66.537,54.895-90.706,90.559c-6.755,9.966-12.943,20.335-18.618,31.023
			c6.164,0.331,12.366,0.535,18.618,0.535c6.247,0,12.448-0.204,18.612-0.535c42.49-2.319,82.838-12.574,119.695-29.218
			C276.67,92.089,258.916,59.426,232.436,36.568z"/>
	</g>
	<g>
		<path fill="#7AB75C" d="M196.262,269.523c49.613-21.199,84.387-70.428,84.387-127.792c0-4.317-0.229-8.582-0.611-12.799
			c-36.857,16.644-77.205,26.898-119.695,29.218C178.43,192.22,190.801,229.76,196.262,269.523z"/>
	</g>
	<g>
		<path fill="#55B8A7" d="M141.73,158.686c-6.252,0-12.454-0.204-18.618-0.535c-18.085,34.069-30.456,71.609-35.916,111.373
			c16.745,7.156,35.172,11.126,54.533,11.126c19.358,0,37.79-3.97,54.532-11.126c-5.461-39.764-17.832-77.304-35.92-111.373
			C154.178,158.481,147.977,158.686,141.73,158.686z"/>
	</g>
	<g>
		<path fill="#0C3183" d="M3.422,128.933c-0.388,4.217-0.61,8.481-0.61,12.799c0,57.364,34.771,106.593,84.385,127.792
			c5.46-39.764,17.831-77.304,35.916-111.373C80.624,155.831,40.277,145.576,3.422,128.933z"/>
	</g>
	<g>
		<path fill="#6A5CA0" d="M141.73,127.127c-24.174-35.664-55.001-66.449-90.714-90.559C24.541,59.426,6.788,92.089,3.422,128.933
			c36.855,16.644,77.202,26.898,119.69,29.218C128.787,147.462,134.975,137.093,141.73,127.127z"/>
	</g>
	<g>
		<path fill="#E2001A" d="M141.73,127.127c24.168-35.664,54.999-66.454,90.706-90.559C208.1,15.554,176.41,2.811,141.73,2.811
			c-34.686,0-66.369,12.743-90.714,33.758C86.729,60.678,117.556,91.463,141.73,127.127z"/>
	</g>
	<path id="pfeil3" fill="#FFFFFF" d="M192.756,51.287L176.07,18.976c-1.9-3.683-6.428-5.129-10.109-3.225
		c-3.682,1.901-5.127,6.428-3.225,10.11l7.041,13.638c-9.078-2.463-18.461-3.707-28.05-3.707
		c-44.584,0-84.955,28.075-100.458,69.861c-1.706,4.598,0.64,9.708,5.237,11.415c1.018,0.377,2.062,0.556,3.087,0.556
		c3.606,0,6.999-2.214,8.327-5.793c12.933-34.859,46.612-58.28,83.807-58.28c5.573,0,11.056,0.532,16.431,1.531l-9.18,2.685
		c-3.977,1.164-6.259,5.331-5.096,9.31c0.959,3.274,3.953,5.398,7.199,5.398c0.697,0,1.406-0.098,2.109-0.304l35.004-10.238
		c2.152-0.629,3.908-2.188,4.791-4.247C193.869,55.625,193.785,53.279,192.756,51.287z"/>
	<path id="pfeil2" fill="#FFFFFF" d="M255.357,201.052c-1.049-4.01-5.152-6.403-9.16-5.36l-12.746,3.336
		c9.514-16.157,15.391-36.817,15.391-56.118c0-24.188-7.869-47.017-22.758-66.019c-3.025-3.859-8.604-4.54-12.467-1.514
		c-3.859,3.024-4.537,8.605-1.512,12.466c12.414,15.846,18.977,34.888,18.977,55.066c0,15.557-4.699,32.531-12.148,45.756
		l-0.854-13.381c-0.264-4.138-3.846-7.283-7.965-7.011c-4.137,0.264-7.275,3.831-7.012,7.966l2.324,36.395
		c0.143,2.237,1.277,4.293,3.094,5.605c1.293,0.934,2.834,1.42,4.395,1.42c0.635,0,1.273-0.08,1.898-0.243l35.182-9.206
		C254.006,209.16,256.406,205.061,255.357,201.052z"/>
	<path id="pfeil1" fill="#FFFFFF" d="M182.113,232.92c-1.596-4.636-6.645-7.105-11.287-5.503
		c-9.334,3.214-19.125,4.845-29.099,4.845c-35.935,0-67.949-21.728-81.917-53.655l11.831,7.188
		c3.542,2.149,8.155,1.024,10.309-2.516c2.152-3.542,1.025-8.157-2.516-10.31l-31.167-18.936c-1.917-1.165-4.25-1.409-6.367-0.673
		c-2.116,0.738-3.791,2.384-4.568,4.484l-12.601,34.11c-1.436,3.888,0.551,8.203,4.438,9.64c0.857,0.316,1.736,0.467,2.599,0.467
		c3.053,0,5.92-1.876,7.04-4.905l4.462-12.08c16.604,38.613,55.153,64.944,98.457,64.944c11.946,0,23.683-1.956,34.884-5.813
		C181.246,242.611,183.711,237.558,182.113,232.92z"/>
</g>
</svg>
