<?xml version="1.0" encoding="utf-8"?>
<!-- Generator: Adobe Illustrator 14.0.0, SVG Export Plug-In . SVG Version: 6.00 Build 43363)  -->
<!DOCTYPE svg PUBLIC "-//W3C//DTD SVG 1.1//EN" "http://www.w3.org/Graphics/SVG/1.1/DTD/svg11.dtd">
<svg version="1.1" id="Ebene_1" xmlns="http://www.w3.org/2000/svg" xmlns:xlink="http://www.w3.org/1999/xlink" x="0px" y="0px"
	 width="141.73px" height="141.73px" viewBox="0 0 141.73 141.73" enable-background="new 0 0 141.73 141.73" xml:space="preserve">
<path id="Board_2_" fill="#9C9E9F" d="M18.295,0.756h105.156c9.68,0,17.53,7.836,17.53,17.546v105.142
	c0,9.694-7.851,17.531-17.53,17.531H18.295c-9.694,0-17.546-7.837-17.546-17.531V18.302C0.749,8.592,8.601,0.756,18.295,0.756z"/>
<path id="Right-List_2_" fill="#FFFFFF" d="M88.39,18.981h25.94c4.65,0,8.412,3.775,8.412,8.411v44.529
	c0,4.637-3.762,8.411-8.412,8.411H88.39c-4.652,0-8.411-3.774-8.411-8.411V27.393C79.979,22.756,83.737,18.981,88.39,18.981z"/>
<path id="Left-List_2_" fill="#FFFFFF" d="M27.385,18.981h25.957c4.636,0,8.411,3.775,8.411,8.411v79.577
	c0,4.65-3.775,8.426-8.411,8.426H27.385c-4.636,0-8.395-3.775-8.395-8.426V27.393C18.99,22.756,22.749,18.981,27.385,18.981z"/>
</svg>
