<?xml version="1.0" encoding="utf-8"?>
<!-- Generator: Adobe Illustrator 14.0.0, SVG Export Plug-In . SVG Version: 6.00 Build 43363)  -->
<!DOCTYPE svg PUBLIC "-//W3C//DTD SVG 1.1//EN" "http://www.w3.org/Graphics/SVG/1.1/DTD/svg11.dtd">
<svg version="1.1" id="Ebene_1" xmlns="http://www.w3.org/2000/svg" xmlns:xlink="http://www.w3.org/1999/xlink" x="0px" y="0px"
	 width="141.73px" height="141.73px" viewBox="0 0 141.73 141.73" enable-background="new 0 0 141.73 141.73" xml:space="preserve">
<g>
	<path fill-rule="evenodd" clip-rule="evenodd" fill="#FFFFFF" d="M136.396,16.561c-0.072,0.361-0.145,0.737-0.23,1.099
		c-0.045,0-0.088,0-0.131,0c0,0.086,0,0.158,0,0.245c-0.029,0-0.088,0-0.115,0c-0.045,0.246-0.088,0.492-0.145,0.737
		c-0.029,0-0.059,0-0.117,0c0,0.072,0,0.159,0,0.231c-0.027,0-0.072,0-0.115,0c-0.029,0.217-0.072,0.419-0.115,0.622
		c-0.029,0-0.072,0-0.131,0c-0.072,0.231-0.158,0.477-0.244,0.723c-0.029,0-0.072,0-0.117,0c0,0.087,0,0.159,0,0.246
		c-0.027,0-0.086,0-0.115,0c0,0.086,0,0.158,0,0.245c-0.057,0-0.086,0-0.129,0c-0.072,0.246-0.16,0.491-0.232,0.737
		c-0.086,0.044-0.174,0.072-0.246,0.116c-0.086,0.245-0.174,0.491-0.26,0.737c-0.086,0.043-0.145,0.086-0.246,0.115
		c0,0.087,0,0.159,0,0.246c-0.029,0-0.072,0-0.115,0c0,0.086,0,0.158,0,0.245c-0.029,0-0.086,0-0.115,0
		c-0.043,0.116-0.088,0.246-0.115,0.376c-0.088,0.029-0.189,0.072-0.246,0.116c0,0.072,0,0.159,0,0.245c-0.059,0-0.088,0-0.115,0
		c-0.059,0.116-0.088,0.246-0.145,0.361c-0.072,0.044-0.16,0.072-0.246,0.116c0,0.087,0,0.173,0,0.245
		c-0.117,0.087-0.232,0.159-0.361,0.246c0,0.072,0,0.159,0,0.246c-0.117,0.072-0.246,0.159-0.361,0.245c0,0.087,0,0.159,0,0.246
		c-0.174,0.13-0.318,0.246-0.479,0.361c0,0.087,0,0.159,0,0.246c-0.289,0.245-0.578,0.491-0.867,0.737c0,0.072,0,0.159,0,0.246
		c-0.375,0.317-0.736,0.65-1.098,0.968c-0.318,0.361-0.65,0.724-0.984,1.099c-0.086,0-0.145,0-0.23,0
		c-0.203,0.246-0.404,0.492-0.607,0.737c-0.086,0-0.174,0-0.26,0c-0.131,0.159-0.232,0.333-0.361,0.478c-0.072,0-0.16,0-0.232,0
		c-0.129,0.174-0.244,0.332-0.375,0.491c-0.086,0-0.158,0-0.23,0c-0.059,0.087-0.102,0.159-0.131,0.246c-0.072,0-0.174,0-0.26,0
		c-0.059,0.13-0.145,0.245-0.246,0.361c-0.434,0.26-0.883,0.491-1.33,0.737c0,0.043,0,0.072,0,0.13c0.115,0,0.23,0,0.361,0
		c1.836-0.332,3.672-0.65,5.494-0.983c1.879-0.52,3.758-1.04,5.607-1.575c0-0.058,0-0.087,0-0.13c0.088,0,0.174,0,0.262,0
		c0-0.044,0-0.087,0-0.116c0.375-0.087,0.723-0.173,1.098-0.26c0-0.029,0-0.072,0-0.116c0.072,0,0.16,0,0.246,0
		c0-0.043,0-0.086,0-0.115c0.246-0.043,0.492-0.087,0.723-0.13c0-0.029,0-0.087,0-0.13c0.088,0,0.174,0,0.246,0
		c0-0.029,0-0.073,0-0.116c0.115,0,0.23,0,0.375,0c0.551-0.231,1.041-0.578,1.707-0.723c0,0.043,0,0.072,0,0.115
		c-0.404,0.261-0.463,0.709-0.738,1.099c-0.129,0.087-0.246,0.159-0.361,0.246c0,0.072,0,0.159,0,0.246
		c-0.086,0.043-0.158,0.072-0.246,0.13c0,0.072,0,0.159,0,0.231c-0.086,0.043-0.158,0.072-0.244,0.115
		c-0.045,0.13-0.088,0.246-0.117,0.376c-0.145,0.072-0.26,0.159-0.375,0.246c0,0.087,0,0.173,0,0.231
		c-0.072,0.043-0.158,0.101-0.246,0.13c0,0.043,0,0.087,0,0.13c-0.072,0.029-0.158,0.087-0.23,0.115c0,0.087,0,0.159,0,0.246
		c-0.16,0.13-0.334,0.246-0.492,0.361c0,0.087,0,0.174,0,0.246c-0.115,0.072-0.246,0.174-0.375,0.246
		c-0.045,0.115-0.072,0.245-0.131,0.361c-0.23,0.217-0.463,0.419-0.723,0.606c0,0.087,0,0.174,0,0.246
		c-0.289,0.261-0.564,0.491-0.854,0.737c0,0.087,0,0.174,0,0.246c-0.65,0.621-1.314,1.214-1.951,1.821
		c-0.68,0.737-1.389,1.475-2.082,2.197c-0.086,0-0.158,0-0.23,0c-0.289,0.333-0.564,0.665-0.867,0.983c-0.072,0-0.16,0-0.246,0
		c-0.145,0.202-0.305,0.404-0.479,0.621c-0.086,0-0.172,0-0.244,0c-0.174,0.188-0.318,0.405-0.479,0.593c-0.115,0-0.172,0-0.26,0
		c-0.115,0.159-0.246,0.347-0.361,0.491c-0.086,0-0.158,0-0.246,0c-0.086,0.131-0.174,0.246-0.23,0.376c-0.088,0-0.188,0-0.275,0
		c-0.057,0.116-0.145,0.246-0.23,0.361c-0.072,0-0.16,0-0.232,0c-0.072,0.116-0.158,0.246-0.244,0.376
		c-0.131,0.029-0.246,0.072-0.361,0.102c0,2.616,0,5.219,0,7.835c-0.42,0.492-0.016,2.501-0.246,3.282c-0.059,0-0.088,0-0.145,0
		c0,0.419,0,0.824,0,1.229c-0.029,0-0.059,0-0.117,0c0,0.318,0,0.636,0,0.969c-0.027,0-0.086,0-0.129,0c0,0.332,0,0.65,0,0.982
		c-0.348,2.082-0.709,4.149-1.1,6.231c-0.027,0-0.072,0-0.115,0c-0.029,0.347-0.072,0.723-0.115,1.084c-0.029,0-0.072,0-0.131,0
		c-0.029,0.333-0.086,0.65-0.115,0.983c-0.029,0-0.059,0-0.115,0c0,0.173,0,0.317,0,0.477c-0.029,0-0.088,0-0.115,0
		c0,0.159,0,0.347,0,0.492c-0.059,0-0.088,0-0.131,0c0,0.158,0,0.332,0,0.491c-0.043,0-0.086,0-0.115,0c0,0.159,0,0.317,0,0.491
		c-0.059,0-0.088,0-0.115,0c0,0.13,0,0.246,0,0.361c-0.059,0-0.088,0-0.131,0c-0.043,0.333-0.086,0.65-0.115,0.969
		c-0.059,0-0.088,0-0.145,0c-0.088,0.405-0.16,0.824-0.232,1.229c-0.043,0-0.086,0-0.115,0c0,0.131,0,0.246,0,0.361
		c-0.043,0-0.102,0-0.131,0c-0.086,0.405-0.158,0.81-0.244,1.229c-0.029,0-0.072,0-0.117,0c0,0.115,0,0.245,0,0.361
		c-0.027,0-0.086,0-0.115,0c0,0.115,0,0.245,0,0.376c-0.057,0-0.102,0-0.145,0c-0.072,0.361-0.158,0.723-0.246,1.099
		c-0.027,0-0.057,0-0.115,0c0,0.072,0,0.159,0,0.231c-0.029,0-0.072,0-0.129,0c-0.059,0.361-0.145,0.751-0.232,1.099
		c-0.057,0-0.086,0-0.115,0c0,0.101,0,0.173,0,0.245c-0.059,0-0.086,0-0.115,0c-0.059,0.246-0.088,0.492-0.131,0.737
		c-0.059,0-0.086,0-0.115,0c0,0.072,0,0.159,0,0.246c-0.059,0-0.088,0-0.131,0c0,0.13,0,0.231,0,0.361c-0.043,0-0.086,0-0.115,0
		c0,0.115,0,0.246,0,0.361c-0.043,0-0.086,0-0.115,0c-0.059,0.217-0.102,0.419-0.145,0.622c-0.029,0-0.059,0-0.115,0
		c-0.029,0.158-0.088,0.317-0.131,0.491c-0.029,0-0.086,0-0.115,0c0,0.115,0,0.246,0,0.347c-0.029,0-0.072,0-0.115,0
		c0,0.087,0,0.174,0,0.261c-0.045,0-0.088,0-0.131,0c0,0.115,0,0.245,0,0.361c-0.029,0-0.072,0-0.115,0
		c-0.059,0.173-0.088,0.317-0.131,0.477c-0.043,0-0.072,0-0.102,0c0,0.131,0,0.261,0,0.376c-0.057,0-0.086,0-0.145,0
		c0,0.087,0,0.159,0,0.246c-0.043,0-0.072,0-0.115,0c-0.043,0.159-0.072,0.318-0.131,0.491c-0.027,0-0.072,0-0.115,0
		c0,0.116,0,0.246,0,0.361c-0.043,0-0.072,0-0.115,0c0,0.087,0,0.174,0,0.246c-0.043,0-0.102,0-0.131,0c0,0.087,0,0.159,0,0.231
		c-0.027,0-0.086,0-0.115,0c0,0.101,0,0.173,0,0.26c-0.057,0-0.086,0-0.129,0c-0.088,0.246-0.16,0.492-0.232,0.737
		c-0.043,0-0.086,0-0.129,0c0,0.116,0,0.231,0,0.347c-0.045,0-0.072,0-0.117,0c-0.086,0.261-0.172,0.507-0.26,0.752
		c-0.029,0-0.059,0-0.115,0c0,0.072,0,0.145,0,0.231c-0.029,0-0.088,0-0.115,0c0,0.087,0,0.174,0,0.246c-0.045,0-0.088,0-0.131,0
		c0,0.072,0,0.173,0,0.245c0,0-0.086,0-0.115,0c0,0.072,0,0.174,0,0.246l-0.246,0.246c0,0.087,0,0.159,0,0.245
		c-0.086,0.029-0.174,0.087-0.23,0.116c0,0.087,0,0.159,0,0.246c-0.059,0-0.088,0-0.145,0c0,0.086,0,0.158,0,0.245
		c-0.029,0-0.072,0-0.117,0c0,0.087,0,0.159,0,0.246c-0.027,0-0.072,0-0.115,0c0,0.072,0,0.159,0,0.245l-0.246,0.246
		c0,0.072,0,0.159,0,0.246c-0.072,0.043-0.158,0.072-0.246,0.115c0,0.072,0,0.159,0,0.246c-0.027,0-0.086,0-0.115,0
		c0,0.087,0,0.174,0,0.231l-0.246,0.26c0,0.087,0,0.159,0,0.231c-0.086,0.043-0.172,0.087-0.23,0.13
		c-0.086,0.246-0.188,0.492-0.246,0.737c-0.086,0.044-0.174,0.072-0.26,0.116c-0.043,0.173-0.086,0.317-0.115,0.491
		c-0.088,0.043-0.16,0.087-0.246,0.115c-0.043,0.174-0.086,0.333-0.131,0.492c-0.086,0.043-0.174,0.087-0.23,0.115
		c-0.059,0.174-0.088,0.318-0.131,0.492c-0.043,0-0.072,0-0.129,0c-0.029,0.115-0.072,0.245-0.117,0.375
		c-0.072,0.029-0.158,0.072-0.244,0.116c-0.045,0.173-0.072,0.332-0.131,0.491c-0.059,0.029-0.145,0.072-0.23,0.116
		c0,0.086,0,0.173,0,0.245c-0.045,0-0.088,0-0.117,0c-0.043,0.13-0.086,0.246-0.129,0.376c-0.088,0.044-0.174,0.087-0.246,0.116
		c0,0.072,0,0.158,0,0.245c-0.088,0.044-0.16,0.072-0.232,0.116c0,0.086,0,0.173,0,0.26c-0.086,0.029-0.188,0.072-0.26,0.115
		c0,0.072,0,0.159,0,0.231c-0.072,0.044-0.158,0.087-0.246,0.131c0,0.086,0,0.158,0,0.245c-0.072,0.029-0.158,0.072-0.23,0.116
		c0,0.087,0,0.159,0,0.245c-0.043,0-0.086,0-0.131,0c-0.027,0.131-0.086,0.246-0.115,0.376c-0.086,0.029-0.174,0.072-0.246,0.116
		c0,0.072,0,0.158,0,0.245c-0.129,0.072-0.26,0.174-0.375,0.246c0,0.072,0,0.159,0,0.231c-0.072,0.043-0.145,0.087-0.232,0.115
		c0,0.102,0,0.174,0,0.246c-0.129,0.087-0.244,0.174-0.375,0.26c0,0.087,0,0.159,0,0.246c-0.115,0.072-0.23,0.159-0.361,0.246
		c0,0.072,0,0.145,0,0.23c-0.115,0.087-0.26,0.174-0.375,0.231c0,0.087,0,0.174,0,0.275c-0.117,0.072-0.246,0.159-0.363,0.231
		c0,0.072,0,0.158,0,0.245c-0.115,0.087-0.23,0.145-0.361,0.246c0,0.072,0,0.159,0,0.245c-0.172,0.116-0.332,0.231-0.49,0.362
		c0,0.072,0,0.158,0,0.245c-0.16,0.13-0.305,0.246-0.492,0.361c0,0.087,0,0.159,0,0.246c-0.202,0.159-0.391,0.332-0.607,0.491
		c0,0.072,0,0.174,0,0.246c-0.202,0.174-0.404,0.332-0.607,0.491c0,0.087,0,0.159,0,0.231c-0.245,0.217-0.49,0.419-0.723,0.622
		c0,0.086,0,0.158,0,0.23c-0.332,0.29-0.664,0.564-0.997,0.868c0,0.072,0,0.159,0,0.231c-0.636,0.621-1.286,1.214-1.937,1.836
		c0,0.086,0,0.158,0,0.245c-0.174,0.116-0.333,0.261-0.492,0.376c-0.332,0.361-0.65,0.723-0.969,1.084c-0.086,0-0.174,0-0.26,0
		c-0.029,0.087-0.072,0.174-0.115,0.246c-0.044,0-0.072,0-0.131,0c-0.477,0.521-0.954,1.056-1.46,1.604
		c-0.116,0.015-0.245,0.072-0.361,0.102c-0.245,0.289-0.506,0.578-0.737,0.853c-0.072,0-0.159,0-0.246,0
		c-0.188,0.246-0.391,0.492-0.592,0.737c-0.102,0-0.174,0-0.261,0c-0.159,0.217-0.317,0.405-0.491,0.607c-0.059,0-0.145,0-0.232,0
		c-0.158,0.217-0.332,0.419-0.49,0.622c-0.088,0-0.174,0-0.232,0c-0.145,0.158-0.26,0.317-0.39,0.477c-0.058,0-0.145,0-0.231,0
		c-0.043,0.087-0.072,0.174-0.131,0.26c-0.115,0.044-0.23,0.072-0.361,0.102c-0.115,0.174-0.23,0.333-0.361,0.506
		c-0.086,0-0.158,0-0.23,0c-0.087,0.116-0.188,0.231-0.26,0.361c-0.088,0-0.16,0-0.246,0c-0.087,0.131-0.16,0.246-0.232,0.361
		c-0.101,0-0.158,0-0.245,0c-0.058,0.072-0.101,0.159-0.145,0.246c-0.058,0-0.145,0-0.245,0c-0.059,0.115-0.145,0.246-0.232,0.361
		c-0.072,0-0.158,0-0.245,0c-0.058,0.087-0.087,0.174-0.116,0.246c-0.086,0-0.173,0-0.245,0c-0.087,0.115-0.173,0.246-0.246,0.376
		c-0.087,0-0.159,0-0.261,0c-0.028,0.072-0.086,0.159-0.086,0.231c-0.145,0.043-0.275,0.086-0.391,0.13c0,0.043,0,0.087,0,0.115
		c-0.072,0-0.145,0-0.246,0c-0.028,0.087-0.072,0.174-0.115,0.261c-0.086,0-0.174,0-0.23,0c-0.059,0.058-0.088,0.145-0.145,0.231
		c-0.072,0-0.16,0-0.232,0c-0.043,0.086-0.086,0.158-0.13,0.245c-0.072,0-0.159,0-0.231,0c-0.043,0.087-0.102,0.159-0.13,0.246
		c-0.087,0-0.173,0-0.245,0c-0.044,0.087-0.072,0.174-0.116,0.231c-0.173,0.043-0.317,0.087-0.506,0.13
		c-0.028,0.087-0.058,0.174-0.116,0.246c-0.086,0-0.145,0-0.23,0c-0.044,0.072-0.102,0.173-0.131,0.245
		c-0.145,0.044-0.318,0.072-0.477,0.13c-0.059,0.087-0.087,0.159-0.145,0.231c-0.145,0.044-0.318,0.087-0.477,0.131
		c-0.044,0.086-0.072,0.158-0.116,0.245c-0.159,0.044-0.333,0.087-0.491,0.116c-0.044,0.087-0.088,0.159-0.116,0.245
		c-0.173,0.044-0.333,0.072-0.506,0.116c0,0.043,0,0.087,0,0.145c-0.087,0-0.159,0-0.231,0c-0.043,0.058-0.086,0.13-0.115,0.231
		c-0.102,0-0.159,0-0.26,0c0,0.043,0,0.086,0,0.115c-0.088,0-0.145,0-0.232,0c0,0.043,0,0.087,0,0.13c-0.086,0-0.174,0-0.26,0
		l-0.246,0.246c-0.058,0-0.145,0-0.23,0c-0.044,0.072-0.072,0.159-0.116,0.231c-0.101,0-0.173,0-0.245,0l-0.246,0.245
		c-0.087,0-0.174,0-0.246,0c0,0.059,0,0.087,0,0.131c-0.086,0-0.159,0-0.26,0c0,0.043,0,0.072,0,0.115c-0.059,0-0.145,0-0.232,0
		c0,0.044,0,0.072,0,0.13c-0.086,0-0.158,0-0.245,0c0,0.029,0,0.072,0,0.116c-0.159,0.043-0.333,0.087-0.478,0.115
		c0,0.044,0,0.087,0,0.116c-0.086,0-0.173,0-0.26,0c0,0.058,0,0.101,0,0.145c-0.072,0-0.158,0-0.246,0c0,0.028,0,0.072,0,0.101
		c-0.072,0-0.158,0-0.23,0c0,0.044,0,0.102,0,0.13c-0.072,0-0.16,0-0.246,0c0,0.044,0,0.087,0,0.116c-0.087,0-0.174,0-0.246,0
		c0,0.043,0,0.102,0,0.145c-0.174,0.029-0.332,0.072-0.477,0.115c0,0.044,0,0.072,0,0.116c-0.087,0-0.174,0-0.26,0
		c0,0.028,0,0.087,0,0.13c-0.116,0-0.246,0-0.362,0c0,0.044,0,0.072,0,0.116c-0.087,0-0.159,0-0.245,0c0,0.028,0,0.072,0,0.115
		c-0.174,0.043-0.318,0.087-0.492,0.13c0,0.029,0,0.087,0,0.116c-0.13,0-0.246,0-0.361,0c0,0.043,0,0.086,0,0.13
		c-0.158,0.043-0.332,0.072-0.492,0.115c0,0.044,0,0.087,0,0.13c-0.115,0-0.23,0-0.346,0c0,0.029,0,0.072,0,0.116
		c-0.188,0.043-0.333,0.087-0.506,0.115c0,0.059,0,0.087,0,0.145c-0.131,0-0.246,0-0.361,0c0,0.029,0,0.072,0,0.116
		c-0.088,0-0.16,0-0.246,0c0,0.028,0,0.058,0,0.115c-0.115,0-0.246,0-0.377,0c0,0.044,0,0.087,0,0.116c-0.057,0-0.158,0-0.245,0
		c0,0.043,0,0.086,0,0.115c-0.188,0.058-0.39,0.087-0.593,0.13c0,0.029,0,0.087,0,0.116c-0.246,0.043-0.491,0.101-0.752,0.13
		c0,0.058,0,0.087,0,0.115c-0.072,0-0.145,0-0.23,0c0,0.044,0,0.087,0,0.131c-0.361,0.086-0.738,0.158-1.1,0.245
		c0,0.029,0,0.072,0,0.13c-0.072,0-0.158,0-0.245,0c0,0.029,0,0.072,0,0.116c-0.362,0.072-0.724,0.159-1.085,0.246
		c0,0.028,0,0.072,0,0.115c-0.145,0-0.26,0-0.39,0c0,0.029,0,0.087,0,0.13c-0.102,0-0.246,0-0.362,0c0,0.044,0,0.072,0,0.102
		c-0.115,0-0.23,0-0.361,0c0,0.058,0,0.102,0,0.13c-0.404,0.087-0.823,0.174-1.214,0.246c0,0.058,0,0.087,0,0.115
		c-0.289,0.058-0.563,0.087-0.867,0.13c0,0.044,0,0.087,0,0.131c-0.275,0.043-0.564,0.086-0.839,0.115c0,0.029,0,0.087,0,0.115
		c-0.332,0.044-0.65,0.102-0.983,0.131c0,0.028,0,0.072,0,0.115c-0.115,0-0.23,0-0.361,0c0,0.044,0,0.087,0,0.13
		c-0.173,0-0.332,0-0.491,0c0,0.029,0,0.072,0,0.116c-0.159,0-0.332,0-0.491,0c0,0.043,0,0.087,0,0.115
		c-0.535,0.087-1.07,0.174-1.576,0.246c0,0.043,0,0.087,0,0.145c-0.217,0-0.419,0-0.621,0c0,0.029,0,0.072,0,0.102
		c-0.405,0.043-0.81,0.086-1.215,0.13c-1.258,0.376-2.877,0.477-4.163,0.838c-0.304,0-0.637,0-0.969,0c0,0.059,0,0.102,0,0.131
		c-0.289,0-0.563,0-0.853,0c0,0.058,0,0.086,0,0.115c-0.362,0-0.724,0-1.113,0c0,0.058,0,0.087,0,0.13
		c-0.839,0.044-1.706,0.087-2.56,0.116c0,0.058,0,0.101,0,0.145c-0.896,0.028-1.792,0.072-2.659,0.101c-0.448,0-0.926,0-1.345,0
		c-1.099,0.318-2.862,0.131-4.149,0.131c-0.78,0-1.764,0.043-2.327-0.131c-1.764-0.072-3.498-0.145-5.262-0.245
		c0-0.029,0-0.072,0-0.116c-0.362,0-0.724,0-1.1,0c0-0.043,0-0.072,0-0.13c-0.332,0-0.636,0-0.968,0c0-0.029,0-0.058,0-0.115
		c-0.318,0-0.65,0-0.969,0c0-0.029,0-0.072,0-0.131c-0.246,0-0.491,0-0.737,0c0-0.028,0-0.072,0-0.115c-0.289,0-0.578,0-0.854,0
		c0-0.029,0-0.072,0-0.116c-0.245,0-0.477,0-0.737,0c0-0.043,0-0.072,0-0.115c-0.447-0.043-0.896-0.102-1.344-0.13
		c-1.721-0.521-3.744-0.752-5.363-1.345c-0.318-0.043-0.65-0.087-0.969-0.115c0-0.029,0-0.087,0-0.131
		c-0.304-0.028-0.578-0.086-0.867-0.115c0-0.029,0-0.072,0-0.115c-0.131,0-0.246,0-0.361,0c0-0.044,0-0.087,0-0.131
		c-0.42-0.072-0.81-0.158-1.229-0.245c0-0.029,0-0.072,0-0.116c-0.145,0-0.317,0-0.477,0c0-0.043,0-0.072,0-0.13
		c-0.145,0-0.261,0-0.376,0c0-0.028,0-0.072,0-0.13c-0.116,0-0.246,0-0.376,0c0-0.029,0-0.058,0-0.102c-0.102,0-0.231,0-0.361,0
		c0-0.043,0-0.101,0-0.13c-0.102,0-0.231,0-0.347,0c0-0.043,0-0.087,0-0.115c-0.131,0-0.246,0-0.361,0c0-0.044,0-0.087,0-0.116
		c-0.145,0-0.261,0-0.376,0c0-0.058,0-0.087,0-0.13c-0.131,0-0.246,0-0.376,0c0-0.044,0-0.087,0-0.116c-0.116,0-0.261,0-0.376,0
		c0-0.058,0-0.101,0-0.13c-0.058,0-0.159,0-0.246,0c0-0.043,0-0.087,0-0.115c-0.231-0.044-0.477-0.087-0.723-0.13
		c0-0.044,0-0.087,0-0.131c-0.087,0-0.159,0-0.231,0c0-0.028,0-0.058,0-0.115c-0.13,0-0.245,0-0.361,0c0-0.029,0-0.087,0-0.13
		c-0.145,0-0.26,0-0.391,0c0-0.029,0-0.087,0-0.116c-0.072,0-0.145,0-0.23,0c0-0.043,0-0.072,0-0.13c-0.131,0-0.231,0-0.362,0
		c0-0.029,0-0.072,0-0.115c-0.202-0.029-0.404-0.072-0.621-0.116c0-0.058,0-0.087,0-0.115c-0.072,0-0.159,0-0.246,0
		c0-0.044,0-0.087,0-0.116c-0.115,0-0.245,0-0.347,0c0-0.058,0-0.086,0-0.145c-0.174-0.028-0.332-0.072-0.491-0.115
		c0-0.044,0-0.087,0-0.116c-0.145,0-0.261,0-0.376,0c0-0.043,0-0.086,0-0.13c-0.159-0.043-0.318-0.072-0.478-0.115
		c0-0.044,0-0.087,0-0.13c-0.13,0-0.245,0-0.361,0c0-0.029,0-0.087,0-0.116c-0.101,0-0.173,0-0.274,0c0-0.043,0-0.087,0-0.13
		c-0.145-0.043-0.304-0.087-0.478-0.115c0-0.044,0-0.072,0-0.116c-0.115,0-0.245,0-0.347,0c0-0.043,0-0.102,0-0.13
		c-0.101,0-0.188,0-0.246,0c0-0.044,0-0.072,0-0.116c-0.188-0.043-0.332-0.086-0.506-0.115c0-0.043,0-0.102,0-0.145
		c-0.086,0-0.158,0-0.245,0c0-0.029,0-0.072,0-0.116c-0.087,0-0.159,0-0.246,0c0-0.028,0-0.086,0-0.13c-0.072,0-0.145,0-0.231,0
		c0-0.028,0-0.072,0-0.101c-0.087,0-0.173,0-0.231,0c0-0.044,0-0.087,0-0.145c-0.101,0-0.188,0-0.26,0c0-0.029,0-0.072,0-0.116
		c-0.159-0.028-0.318-0.072-0.491-0.115c0-0.044,0-0.087,0-0.116c-0.145-0.058-0.333-0.086-0.478-0.13c0-0.043,0-0.072,0-0.115
		c-0.174-0.044-0.332-0.072-0.477-0.131c0-0.028,0-0.086,0-0.115c-0.116,0-0.174,0-0.275,0c0-0.058,0-0.087,0-0.13
		c-0.072,0-0.145,0-0.231,0c0,0,0-0.072,0-0.116c-0.086,0-0.158,0-0.245,0c0-0.043,0-0.086,0-0.115c-0.087,0-0.174,0-0.246,0
		c0-0.043,0-0.072,0-0.13c-0.174-0.029-0.318-0.072-0.491-0.116c-0.029-0.087-0.072-0.159-0.116-0.245c-0.072,0-0.158,0-0.245,0
		c0-0.044,0-0.102,0-0.131c-0.087,0-0.174,0-0.246,0l-0.246-0.245c-0.086,0-0.158,0-0.23,0c-0.059-0.072-0.087-0.159-0.116-0.231
		c-0.26-0.087-0.506-0.159-0.752-0.246c-0.028-0.087-0.086-0.159-0.115-0.245c-0.174-0.044-0.318-0.087-0.506-0.131
		c-0.029-0.072-0.072-0.145-0.116-0.231c-0.158-0.058-0.332-0.086-0.477-0.13c-0.044-0.072-0.087-0.173-0.13-0.245
		c-0.087,0-0.159,0-0.231,0c0-0.044,0-0.072,0-0.116c-0.087,0-0.174,0-0.275,0c-0.028-0.087-0.058-0.173-0.086-0.26
		c-0.376-0.217-0.767-0.246-0.983-0.593c0.318,0,0.636,0,0.983,0c0.26,0.245,0.867,0.043,1.315,0.115c0.058,0,0.087,0,0.13,0
		c0,0.044,0,0.087,0,0.13c0.694,0,1.402,0,2.082,0c0.882,0.072,2.096,0.116,3.166,0.116c0.332,0,0.665,0,0.982,0
		c0-0.044,0-0.087,0-0.116c0.68-0.188,1.721,0.029,2.328-0.13c0.81-0.028,1.619-0.087,2.429-0.115
		c1.951-0.333,3.903-0.65,5.869-0.998c0-0.028,0-0.072,0-0.101c0.332-0.044,0.636-0.087,0.954-0.13c0-0.029,0-0.073,0-0.131
		c0.173,0,0.332,0,0.506,0c0-0.028,0-0.072,0-0.115c0.159,0,0.332,0,0.477,0c0-0.044,0-0.072,0-0.116c0.188,0,0.333,0,0.492,0
		c0-0.043,0-0.086,0-0.13c0.173,0,0.317,0,0.506,0c0-0.043,0-0.072,0-0.115c0.115,0,0.231,0,0.347,0c0-0.044,0-0.087,0-0.131
		c0.159,0,0.333,0,0.506,0c0-0.043,0-0.072,0-0.115c0.116,0,0.246,0,0.361,0c0-0.043,0-0.087,0-0.115c0.116,0,0.246,0,0.361,0
		c0-0.059,0-0.087,0-0.131c0.116,0,0.246,0,0.362,0c0-0.043,0-0.086,0-0.115c0.173,0,0.332,0,0.506,0c0-0.043,0-0.087,0-0.115
		c0.231-0.059,0.477-0.102,0.723-0.131c0-0.028,0-0.072,0-0.13c0.087,0,0.173,0,0.231,0c0-0.028,0-0.087,0-0.115
		c0.376-0.087,0.751-0.159,1.099-0.261c0-0.028,0-0.058,0-0.115c0.087,0,0.173,0,0.245,0c0-0.029,0-0.072,0-0.116
		c0.246-0.043,0.507-0.072,0.737-0.13c0-0.029,0-0.058,0-0.102c0.087,0,0.159,0,0.246,0c0-0.058,0-0.086,0-0.145
		c0.13,0,0.246,0,0.361,0c0-0.028,0-0.072,0-0.115c0.174-0.029,0.333-0.072,0.491-0.115c0-0.044,0-0.087,0-0.116
		c0.131,0,0.246,0,0.362,0c0-0.043,0-0.087,0-0.13c0.158-0.043,0.332-0.087,0.491-0.115c0-0.044,0-0.087,0-0.116
		c0.115,0,0.245,0,0.361,0c0-0.058,0-0.087,0-0.13c0.087,0,0.174,0,0.26,0c0-0.058,0-0.087,0-0.13c0.072,0,0.159,0,0.246,0
		c0-0.029,0-0.072,0-0.116c0.246-0.087,0.478-0.173,0.723-0.245c0-0.044,0-0.087,0-0.131c0.116,0,0.246,0,0.376,0
		c0-0.028,0-0.072,0-0.115c0.231-0.072,0.478-0.159,0.723-0.246c0-0.028,0-0.072,0-0.115c0.087,0,0.159,0,0.246,0
		c0-0.044,0-0.087,0-0.13c0.231-0.072,0.491-0.159,0.737-0.246c0.029-0.072,0.072-0.145,0.115-0.246c0.087,0,0.159,0,0.246,0
		c0-0.043,0-0.072,0-0.115c0.087,0,0.145,0,0.231,0c0-0.044,0-0.072,0-0.116c0.087,0,0.173,0,0.245,0l0.261-0.245
		c0.072,0,0.159,0,0.246,0c0.028-0.087,0.058-0.174,0.115-0.246c0.231-0.072,0.478-0.159,0.723-0.231
		c0.044-0.087,0.087-0.173,0.116-0.26c0.173-0.044,0.332-0.072,0.506-0.13c0.028-0.059,0.072-0.159,0.115-0.246
		c0.159-0.029,0.333-0.072,0.478-0.102c0.058-0.087,0.087-0.173,0.13-0.245c0.174-0.044,0.332-0.102,0.491-0.131
		c0-0.043,0-0.086,0-0.115c0.13-0.043,0.246-0.087,0.361-0.116c0.044-0.101,0.102-0.173,0.131-0.26c0.086,0,0.158,0,0.23,0
		c0-0.029,0-0.072,0-0.115c0.131-0.044,0.246-0.087,0.391-0.131c0.029-0.072,0.058-0.158,0.116-0.245c0.072,0,0.158,0,0.245,0
		c0.029-0.072,0.058-0.159,0.116-0.246c0.072,0,0.158,0,0.245,0c0.029-0.072,0.087-0.159,0.116-0.231c0.087,0,0.173,0,0.245,0
		c0.087-0.13,0.174-0.245,0.231-0.361c0.087,0,0.174,0,0.261,0c0.043-0.087,0.072-0.174,0.115-0.26c0.072,0,0.159,0,0.246,0
		c0.087-0.116,0.159-0.231,0.245-0.361c0.087,0,0.159,0,0.246,0c0.072-0.131,0.159-0.246,0.231-0.361c0.087,0,0.188,0,0.274,0
		c0.058-0.116,0.145-0.261,0.231-0.376c0.115-0.029,0.231-0.072,0.361-0.116c0-0.043,0-0.087,0-0.115c-0.535,0-1.069,0-1.59,0
		c-0.289-0.246-0.781,0-1.215-0.13c0-0.029,0-0.073,0-0.116c-0.304,0-0.578,0-0.867,0c0-0.043,0-0.072,0-0.13
		c-0.246,0-0.477,0-0.723,0c-1.301-0.376-2.718-0.622-3.903-1.099c-0.246-0.029-0.491-0.087-0.723-0.116c0-0.043,0-0.086,0-0.13
		c-0.087,0-0.174,0-0.261,0c0-0.028,0-0.072,0-0.115c-0.245-0.029-0.477-0.072-0.723-0.131c-1.388-0.679-2.775-1.388-4.148-2.066
		c-0.044-0.087-0.087-0.159-0.131-0.246c-0.158-0.043-0.317-0.087-0.491-0.115c0-0.044,0-0.087,0-0.131
		c-0.115-0.028-0.246-0.086-0.361-0.115c-0.043-0.087-0.072-0.159-0.13-0.246c-0.072,0-0.145,0-0.231,0
		c-0.087-0.115-0.145-0.245-0.246-0.376c-0.087,0-0.173,0-0.245,0c-0.044-0.072-0.072-0.159-0.116-0.231c-0.087,0-0.174,0-0.26,0
		c-0.059-0.13-0.145-0.245-0.231-0.375c-0.087,0-0.159,0-0.246,0c-0.115-0.145-0.245-0.318-0.361-0.478c-0.087,0-0.174,0-0.26,0
		c-0.188-0.246-0.405-0.491-0.607-0.737c-0.087,0-0.174,0-0.231,0c-0.217-0.246-0.419-0.491-0.607-0.737
		c-0.65-0.607-1.315-1.214-1.966-1.836c0-0.072,0-0.159,0-0.231c-0.202-0.159-0.404-0.332-0.607-0.491c0-0.072,0-0.159,0-0.231
		c-0.173-0.145-0.317-0.26-0.491-0.376c0-0.087,0-0.173,0-0.245c-0.13-0.072-0.246-0.174-0.361-0.246c0-0.087,0-0.174,0-0.246
		c-0.116-0.072-0.246-0.159-0.361-0.245c0-0.087,0-0.159,0-0.231c-0.087-0.044-0.174-0.087-0.261-0.131
		c-0.028-0.13-0.072-0.245-0.115-0.361c-0.044,0-0.072,0-0.116,0c0-0.086,0-0.173,0-0.26c-0.072-0.029-0.158-0.072-0.26-0.115
		c-0.029-0.116-0.058-0.246-0.102-0.362c-0.043,0-0.072,0-0.13,0c-0.028-0.158-0.087-0.332-0.13-0.491
		c-0.072-0.043-0.159-0.072-0.231-0.115c-0.087-0.246-0.174-0.492-0.246-0.737c-0.086-0.044-0.173-0.072-0.23-0.116
		c-0.116-0.245-0.188-0.491-0.261-0.737c-0.029,0-0.087,0-0.115,0c0-0.087,0-0.159,0-0.245c-0.044,0-0.102,0-0.131,0
		c-0.086-0.246-0.145-0.492-0.245-0.737c-0.029,0-0.072,0-0.116,0c0-0.116,0-0.231,0-0.361c-0.028,0-0.086,0-0.145,0
		c-0.028-0.159-0.058-0.318-0.115-0.492c-0.029,0-0.058,0-0.116,0c0-0.115,0-0.245,0-0.361c-0.245-0.578-0.664-1.2-0.723-1.951
		c0.839,0.087,1.706,0.159,2.573,0.245c0,0.044,0,0.072,0,0.116c0.593,0,1.215,0,1.808,0c0,0.043,0,0.072,0,0.13
		c0.621,0,1.229,0,1.836,0c0-0.058,0-0.087,0-0.13c0.65,0,1.315,0,1.966,0c0-0.044,0-0.072,0-0.116c0.318,0,0.65,0,0.983,0
		c0-0.043,0-0.086,0-0.13c0.274,0,0.563,0,0.838,0c0-0.028,0-0.087,0-0.115c0.246,0,0.492,0,0.737,0
		c0.535-0.174,1.229-0.376,1.836-0.492c0-0.043,0-0.086,0-0.115c-0.78-0.159-1.562-0.333-2.327-0.491c0-0.044,0-0.087,0-0.116
		c-0.13,0-0.246,0-0.361,0c0-0.043,0-0.087,0-0.145c-0.13,0-0.246,0-0.361,0c0-0.028,0-0.072,0-0.101
		c-0.361-0.087-0.737-0.159-1.113-0.246c0-0.043,0-0.087,0-0.13c-0.087,0-0.174,0-0.231,0c0-0.044,0-0.072,0-0.116
		c-0.13,0-0.246,0-0.361,0c0-0.043,0-0.087,0-0.13c-0.102,0-0.174,0-0.246,0c0-0.029,0-0.087,0-0.13c-0.145,0-0.26,0-0.39,0
		c0-0.044,0-0.072,0-0.116c-0.145-0.028-0.318-0.072-0.463-0.115c0-0.044,0-0.072,0-0.116c-0.13,0-0.246,0-0.391,0
		c-1.084-0.606-2.183-1.229-3.296-1.836c-0.029-0.072-0.058-0.173-0.102-0.245c-0.072,0-0.158,0-0.26,0c0-0.044,0-0.072,0-0.116
		c-0.102-0.043-0.231-0.086-0.347-0.13c-0.059-0.072-0.087-0.173-0.131-0.245c-0.086,0-0.173,0-0.23,0
		c-0.116-0.131-0.188-0.231-0.261-0.362c-0.087,0-0.159,0-0.246,0c-0.086-0.115-0.145-0.245-0.245-0.361c-0.072,0-0.145,0-0.261,0
		c-0.115-0.173-0.231-0.332-0.361-0.491c-0.058,0-0.145,0-0.231,0c-0.158-0.202-0.332-0.404-0.491-0.622c-0.087,0-0.159,0-0.231,0
		c-0.506-0.52-0.982-1.04-1.46-1.59c-0.419-0.361-0.839-0.723-1.229-1.099c0-0.072,0-0.145,0-0.231
		c-0.202-0.159-0.405-0.317-0.622-0.491c0-0.072,0-0.159,0-0.231c-0.159-0.13-0.332-0.26-0.477-0.376c0-0.087,0-0.159,0-0.246
		c-0.116-0.086-0.246-0.158-0.361-0.245c0-0.087,0-0.159,0-0.246c-0.116-0.072-0.261-0.159-0.391-0.245c0-0.073,0-0.159,0-0.246
		c-0.058-0.044-0.145-0.072-0.231-0.116c-0.043-0.115-0.072-0.245-0.13-0.376c-0.029,0-0.058,0-0.116,0c0-0.072,0-0.158,0-0.23
		c-0.058-0.044-0.173-0.072-0.245-0.131c-0.044-0.115-0.087-0.23-0.102-0.361c-0.058,0-0.101,0-0.13,0c0-0.072,0-0.158,0-0.245
		c-0.058,0-0.087,0-0.116,0c0-0.087,0-0.159,0-0.231c-0.101-0.044-0.188-0.087-0.245-0.116c-0.087-0.26-0.174-0.506-0.261-0.751
		c-0.086-0.029-0.158-0.072-0.245-0.116c-0.029-0.159-0.087-0.332-0.116-0.491c-0.043,0-0.087,0-0.13,0c0-0.087,0-0.174,0-0.246
		c-0.029,0-0.072,0-0.115,0C9.758,67.1,9.656,66.84,9.584,66.594c-0.043,0-0.087,0-0.087,0c-0.015-0.115-0.015-0.231-0.015-0.361
		c-0.058,0-0.101,0-0.145,0c-0.043-0.159-0.072-0.317-0.115-0.491c-0.044,0-0.087,0-0.13,0c0-0.116,0-0.246,0-0.361
		c-0.029,0-0.072,0-0.116,0c-0.043-0.159-0.072-0.318-0.13-0.492c-0.029,0-0.058,0-0.115,0c0-0.115,0-0.23,0-0.361
		c-0.044,0-0.087,0-0.116,0c0-0.115,0-0.245,0-0.361c-0.028,0-0.087,0-0.13,0c0-0.13,0-0.245,0-0.376c-0.044,0-0.087,0-0.116,0
		c0-0.115,0-0.231,0-0.361c-1.069-2.703-1.431-5.493-1.46-9.28c0.506,0.101,0.824,0.419,1.215,0.621
		C8.369,54.855,8.615,54.928,8.847,55c0,0.043,0,0.087,0,0.13c0.174,0.044,0.332,0.087,0.491,0.116c0,0.043,0,0.086,0,0.13
		c0.145,0,0.246,0,0.376,0c0,0.028,0,0.087,0,0.115c0.087,0,0.159,0,0.231,0c0,0.044,0,0.087,0,0.116c0.13,0,0.246,0,0.376,0
		c0,0.058,0,0.086,0,0.13c0.087,0,0.145,0,0.231,0c0,0.043,0,0.087,0,0.13c0.26,0.029,0.506,0.072,0.737,0.116
		c0,0.043,0,0.086,0,0.13c0.072,0,0.188,0,0.245,0c0,0.028,0,0.072,0,0.115c0.116,0,0.246,0,0.362,0c0,0.029,0,0.072,0,0.116
		c0.173,0,0.332,0,0.506,0c2.053,0.737,4.293,1.171,7.083,1.229c0-0.043,0-0.087,0-0.13c-0.188-0.072-0.332-0.159-0.491-0.246
		c-0.058-0.072-0.087-0.159-0.115-0.231c-0.116,0-0.188,0-0.261,0c-0.087-0.13-0.159-0.246-0.246-0.376c-0.086,0-0.145,0-0.245,0
		c-0.116-0.159-0.261-0.332-0.376-0.477c-0.058,0-0.159,0-0.246,0c-0.145-0.217-0.304-0.42-0.477-0.622c-0.087,0-0.145,0-0.246,0
		c-0.434-0.491-0.896-0.982-1.345-1.46c-0.434-0.419-0.882-0.81-1.344-1.229c0-0.072,0-0.159,0-0.231
		c-0.203-0.174-0.405-0.333-0.593-0.491c0-0.087,0-0.159,0-0.246c-0.174-0.13-0.348-0.246-0.506-0.376c0-0.072,0-0.159,0-0.246
		c-0.116-0.058-0.231-0.145-0.348-0.23c0-0.087,0-0.174,0-0.246c-0.13-0.072-0.245-0.159-0.361-0.246c0-0.087,0-0.173,0-0.231
		c-0.101-0.043-0.173-0.086-0.274-0.13c-0.029-0.13-0.058-0.246-0.115-0.376c-0.029,0-0.059,0-0.116,0c0-0.087,0-0.159,0-0.245
		c-0.072-0.029-0.159-0.072-0.246-0.116c-0.028-0.115-0.058-0.245-0.115-0.376c-0.058,0-0.087,0-0.13,0
		c-0.044-0.159-0.087-0.317-0.102-0.477c-0.101-0.044-0.188-0.072-0.246-0.116c-0.101-0.245-0.188-0.491-0.245-0.737
		c-0.087-0.043-0.174-0.086-0.261-0.115c-0.028-0.174-0.086-0.332-0.115-0.491c-0.043,0-0.087,0-0.13,0c0-0.087,0-0.159,0-0.261
		c-0.029,0-0.087,0-0.116,0c-0.087-0.231-0.159-0.477-0.245-0.723c-0.029,0-0.072,0-0.116,0c0-0.115,0-0.246,0-0.361
		c-0.058,0-0.087,0-0.13,0c0-0.087,0-0.159,0-0.246c-0.043,0-0.087,0-0.087,0c-0.072-0.159-0.115-0.317-0.159-0.491
		c-0.043,0-0.072,0-0.115,0c-0.044-0.202-0.087-0.405-0.13-0.607c-0.029,0-0.072,0-0.116,0c-0.043-0.26-0.072-0.491-0.13-0.737
		c-0.029,0-0.058,0-0.115,0c0-0.115,0-0.231,0-0.361c-0.044,0-0.087,0-0.116,0c0-0.13,0-0.246,0-0.376c-0.028,0-0.087,0-0.13,0
		c0-0.101,0-0.231,0-0.347c-0.044,0-0.087,0-0.116,0c0-0.145,0-0.246,0-0.376c-0.058,0-0.086,0-0.115,0c0-0.13,0-0.246,0-0.361
		c-0.058,0-0.087,0-0.13,0c0-0.159,0-0.333,0-0.491c-0.044,0-0.087,0-0.116,0c0-0.159,0-0.333,0-0.492c-0.058,0-0.086,0-0.145,0
		c0-0.158,0-0.317,0-0.491c-0.028,0-0.072,0-0.086,0c0-0.159,0-0.332,0-0.477c-0.059,0-0.116,0-0.146,0c0-0.218,0-0.42,0-0.622
		c-0.028,0-0.101,0-0.13,0c0-0.246,0-0.491,0-0.737c-0.028,0-0.072,0-0.115,0c0-0.289,0-0.563,0-0.839c-0.029,0-0.087,0-0.116,0
		c0-0.332,0-0.65,0-0.982c-0.043,0-0.086,0-0.13,0c0-0.607,0-1.229,0-1.821c-0.058-0.362-0.26-1.2-0.115-1.721
		c0.028,0,0.087,0,0.115,0c0-0.65,0-1.301,0-1.952c0.044,0,0.087,0,0.13,0c0.029-0.65,0.087-1.301,0.116-1.951
		c0.043,0,0.087,0,0.115,0c0-0.202,0-0.404,0-0.621c0.029,0,0.102,0,0.13,0c0-0.188,0-0.405,0-0.593c0.029,0,0.087,0,0.146,0
		c0-0.203,0-0.42,0-0.622c0.014,0,0.058,0,0.086,0c0-0.159,0-0.318,0-0.477c0.059,0,0.087,0,0.145,0c0-0.174,0-0.333,0-0.492
		c0.029,0,0.072,0,0.116,0c0-0.13,0-0.246,0-0.361c0.043,0,0.072,0,0.13,0c0-0.174,0-0.332,0-0.491c0.029,0,0.058,0,0.115,0
		c0-0.116,0-0.246,0-0.376c0.029,0,0.072,0,0.116,0c0-0.116,0-0.246,0-0.361c0.043,0,0.102,0,0.13,0c0-0.116,0-0.246,0-0.376
		c0.029,0,0.072,0,0.116,0c0-0.116,0-0.231,0-0.361c0.058,0,0.086,0,0.115,0c0-0.072,0-0.159,0-0.231c0.058,0,0.087,0,0.13,0
		c0-0.13,0-0.246,0-0.376c0.044,0,0.087,0,0.116,0c0.043-0.202,0.086-0.404,0.13-0.607c0.043,0,0.072,0,0.115,0
		c0-0.087,0-0.159,0-0.245c0.044,0,0.087,0,0.145,0c0-0.131,0-0.246,0-0.361c0,0,0.059,0,0.102,0c0-0.087,0-0.174,0-0.246
		c0.043,0,0.072,0,0.13,0c0.044-0.159,0.087-0.333,0.116-0.491c0.043,0,0.086,0,0.115,0c0.043-0.159,0.087-0.333,0.13-0.478
		c0.029,0,0.087,0,0.116,0c0-0.087,0-0.174,0-0.26c0.245-0.405,0.506-0.81,0.751-1.215c0.029,0,0.059,0,0.116,0
		c0,0.044,0,0.087,0,0.116c0.13,0.086,0.231,0.173,0.361,0.245c0,0.087,0,0.174,0,0.246c0.202,0.159,0.419,0.332,0.593,0.491
		c0,0.087,0,0.159,0,0.246c0.304,0.245,0.593,0.491,0.867,0.723c0,0.072,0,0.174,0,0.246c0.333,0.289,0.665,0.578,0.983,0.867
		c0,0.072,0,0.159,0,0.231c0.448,0.404,0.896,0.824,1.344,1.229c0.637,0.723,1.302,1.46,1.952,2.197c0.072,0,0.174,0,0.246,0
		c0.404,0.448,0.823,0.896,1.214,1.345c0.145,0.115,0.318,0.246,0.491,0.347c0.044,0.087,0.072,0.174,0.131,0.261
		c0.058,0,0.158,0,0.245,0c0.289,0.332,0.564,0.65,0.839,0.982c0.087,0,0.159,0,0.231,0c0.26,0.274,0.506,0.55,0.737,0.839
		c0.101,0,0.159,0,0.26,0c0.044,0.087,0.072,0.174,0.102,0.246c0.058,0,0.087,0,0.145,0c0.072,0.13,0.159,0.245,0.246,0.361
		c0.072,0,0.158,0,0.23,0c0.044,0.101,0.072,0.173,0.131,0.26c0.028,0,0.086,0,0.115,0c0.058,0.087,0.087,0.159,0.115,0.231
		c0.102,0,0.188,0,0.246,0c0.13,0.174,0.246,0.332,0.361,0.491c0.087,0,0.174,0,0.261,0c0.13,0.174,0.245,0.318,0.361,0.492
		c0.087,0,0.159,0,0.231,0c0.13,0.173,0.245,0.317,0.39,0.477c0.072,0,0.145,0,0.246,0c0.072,0.13,0.145,0.246,0.231,0.376
		c0.072,0,0.159,0,0.245,0c0.087,0.115,0.174,0.246,0.246,0.361c0.072,0,0.174,0,0.246,0c0.072,0.13,0.159,0.261,0.231,0.376
		c0.086,0,0.173,0,0.26,0c0.029,0.087,0.072,0.174,0.116,0.246c0.086,0,0.158,0,0.245,0c0.087,0.115,0.159,0.245,0.246,0.361
		c0.087,0,0.173,0,0.231,0c0,0.028,0,0.086,0,0.115c0.13,0.043,0.26,0.087,0.376,0.13c0.043,0.087,0.072,0.159,0.13,0.246
		c0.072,0,0.145,0,0.245,0c0.059,0.13,0.145,0.246,0.231,0.361c0.087,0,0.174,0,0.246,0c0.043,0.087,0.087,0.159,0.115,0.246
		c0.131,0.043,0.246,0.087,0.361,0.115c0,0.044,0,0.087,0,0.116c0.087,0,0.174,0,0.261,0c0.029,0.101,0.072,0.188,0.115,0.26
		c0.087,0,0.159,0,0.246,0c0.029,0.072,0.087,0.159,0.13,0.231c0.072,0,0.145,0,0.231,0c0.058,0.087,0.087,0.174,0.13,0.26
		c0.159,0.029,0.318,0.072,0.492,0.116c0,0.028,0,0.087,0,0.115c0.115,0.044,0.231,0.087,0.361,0.13
		c0.028,0.087,0.087,0.159,0.115,0.246c0.174,0.044,0.333,0.087,0.491,0.116c0,0.043,0,0.086,0,0.115
		c0.116,0.058,0.261,0.087,0.376,0.13c0.029,0.087,0.072,0.174,0.116,0.246c0.072,0,0.159,0,0.245,0c0,0.028,0,0.072,0,0.115
		c0.087,0,0.159,0,0.246,0c0.029,0.087,0.072,0.174,0.116,0.261c0.245,0.058,0.491,0.159,0.737,0.231
		c0.043,0.086,0.072,0.173,0.115,0.26c0.159,0.029,0.332,0.072,0.491,0.102c0.044,0.087,0.087,0.173,0.116,0.245
		c0.087,0,0.173,0,0.245,0c0,0.044,0,0.087,0,0.116c0.087,0,0.174,0,0.261,0l0.231,0.26c0.072,0,0.159,0,0.245,0
		c0.029,0.072,0.087,0.145,0.116,0.246c0.665,0.274,1.315,0.563,1.951,0.853c0.044,0.072,0.087,0.174,0.116,0.231
		c0.173,0.058,0.332,0.087,0.506,0.13c0,0.029,0,0.072,0,0.131c0.159,0.028,0.317,0.086,0.477,0.115c0,0.043,0,0.087,0,0.115
		c0.116,0,0.246,0,0.376,0c0,0.044,0,0.087,0,0.131c0.159,0.028,0.318,0.072,0.491,0.115c0,0.043,0,0.087,0,0.13
		c0.087,0,0.159,0,0.231,0c0,0.044,0,0.087,0,0.116c0.102,0,0.159,0,0.246,0c0,0.043,0,0.087,0,0.13c0.087,0,0.159,0,0.246,0
		c0,0.043,0,0.087,0,0.115c0.26,0.072,0.491,0.159,0.737,0.246c0,0.044,0,0.072,0,0.13c0.115,0,0.245,0,0.361,0
		c0,0.029,0,0.072,0,0.102c0.087,0,0.173,0,0.245,0c0,0.058,0,0.102,0,0.145c0.174,0.029,0.318,0.072,0.492,0.115
		c0,0.029,0,0.087,0,0.131c0.115,0,0.245,0,0.361,0c0,0,0,0.058,0,0.101c0.159,0.029,0.332,0.087,0.491,0.13
		c0,0.044,0,0.087,0,0.116c0.116,0,0.231,0,0.376,0c0,0.043,0,0.072,0,0.13c0.072,0,0.145,0,0.231,0c0,0.044,0,0.087,0,0.13
		c0.13,0,0.245,0,0.361,0c0,0.029,0,0.072,0,0.116c0.087,0,0.159,0,0.246,0c0,0.043,0,0.072,0,0.115
		c0.217,0.044,0.419,0.087,0.606,0.13c0,0.029,0,0.087,0,0.116c0.145,0,0.261,0,0.376,0c0,0.043,0,0.087,0,0.115
		c0.087,0,0.159,0,0.246,0c0,0.044,0,0.087,0,0.116c0.115,0,0.231,0,0.361,0c0,0.058,0,0.101,0,0.145c0.087,0,0.174,0,0.231,0
		c0,0.028,0,0.072,0,0.115c0.376,0.072,0.752,0.159,1.113,0.231c0,0.058,0,0.087,0,0.145c0.072,0,0.173,0,0.231,0
		c0,0.029,0,0.072,0,0.115c0.245,0.029,0.506,0.073,0.736,0.116c0,0.043,0,0.072,0,0.13c0.131,0,0.246,0,0.376,0
		c0,0.044,0,0.072,0,0.116c0.116,0,0.231,0,0.376,0c0,0.043,0,0.086,0,0.13c0.116,0,0.246,0,0.361,0c0,0.028,0,0.072,0,0.115
		c0.116,0,0.231,0,0.361,0c0,0.029,0,0.087,0,0.116c0.116,0,0.231,0,0.362,0c0,0.043,0,0.087,0,0.13c0.115,0,0.245,0,0.361,0
		c0,0.029,0,0.072,0,0.115c0.173,0,0.317,0,0.506,0c0,0.044,0,0.072,0,0.131c0.115,0,0.231,0,0.361,0c0,0.043,0,0.086,0,0.115
		c0.115,0,0.231,0,0.347,0c0,0.043,0,0.072,0,0.115c0.174,0,0.333,0,0.506,0c0,0.044,0,0.087,0,0.131c0.13,0,0.246,0,0.361,0
		c0,0.043,0,0.072,0,0.115c0.289,0.058,0.578,0.102,0.868,0.13c0,0.044,0,0.087,0,0.116c0.145,0,0.317,0,0.477,0
		c0,0.043,0,0.087,0,0.115c0.332,0.058,0.65,0.102,0.983,0.116c0,0.058,0,0.101,0,0.145c0.304,0.028,0.65,0.086,0.954,0.115
		c0,0.044,0,0.087,0,0.116c0.39,0.043,0.751,0.086,1.113,0.13c0.867,0.274,2.038,0.462,2.935,0.737
		c0.491,0.028,0.968,0.072,1.46,0.115c0.665,0.202,1.634,0.289,2.312,0.478c0.333,0,0.665,0,0.983,0c0,0.058,0,0.086,0,0.13
		c0.361,0,0.723,0,1.099,0c0,0.058,0,0.087,0,0.115c0.376,0,0.723,0,1.099,0c0,0.059,0,0.087,0,0.131
		c1.272,0.086,2.53,0.173,3.788,0.245c0-0.028,0-0.072,0-0.115c-0.29-0.304-0.116-0.781-0.246-1.229c-0.044,0-0.087,0-0.116,0
		c0-0.245,0-0.477,0-0.736c-0.058,0-0.086,0-0.13,0c0-0.275,0-0.564,0-0.854c-0.043,0-0.087,0-0.115,0c0-0.391,0-0.81,0-1.214
		c-0.274-0.969-0.274-3.803,0-4.757c0-0.361,0-0.737,0-1.099c0.028,0,0.072,0,0.115,0c0-0.289,0-0.563,0-0.867
		c0.044,0,0.072,0,0.13,0c0-0.246,0-0.478,0-0.723c0.029,0,0.072,0,0.116,0c0-0.202,0-0.405,0-0.607c0.029,0,0.087,0,0.13,0
		c0-0.202,0-0.404,0-0.607c0.029,0,0.072,0,0.116,0c0.028-0.332,0.072-0.65,0.115-0.982c0.029,0,0.087,0,0.115,0
		c0-0.159,0-0.318,0-0.478c0.059,0,0.087,0,0.131,0c0-0.13,0-0.245,0-0.376c0.058,0,0.086,0,0.115,0c0-0.13,0-0.245,0-0.361
		c0.043,0,0.087,0,0.13,0c0.044-0.289,0.072-0.578,0.131-0.867c0.028,0,0.072,0,0.115,0c0-0.072,0-0.159,0-0.246
		c0.043,0,0.072,0,0.115,0c0.044-0.245,0.072-0.491,0.131-0.723c0.028,0,0.086,0,0.115,0c0-0.072,0-0.173,0-0.245
		c0.043,0,0.087,0,0.115,0c0-0.116,0-0.246,0-0.362c0.044,0,0.087,0,0.116,0c0-0.086,0-0.158,0-0.245c0.043,0,0.102,0,0.145,0
		c0-0.116,0-0.246,0-0.376c0.029,0,0.072,0,0.102,0c0.086-0.231,0.188-0.491,0.245-0.723c0.058,0,0.087,0,0.145,0
		c0-0.087,0-0.174,0-0.246c0.029,0,0.058,0,0.116,0c0-0.072,0-0.159,0-0.246c0.028,0,0.072,0,0.116,0c0-0.086,0-0.173,0-0.245
		c0.043,0,0.072,0,0.129,0c0-0.072,0-0.159,0-0.231c0.029,0,0.072,0,0.116,0c0-0.087,0-0.174,0-0.246l0.245-0.26
		c0-0.072,0-0.159,0-0.231c0.088-0.043,0.174-0.087,0.246-0.13c0.043-0.159,0.072-0.318,0.116-0.492
		c0.087-0.043,0.173-0.072,0.245-0.13c0.044-0.145,0.072-0.304,0.116-0.477c0.044,0,0.087,0,0.13,0
		c0.043-0.116,0.072-0.246,0.115-0.361c0.072-0.044,0.16-0.087,0.246-0.116c0-0.087,0-0.173,0-0.245c0.043,0,0.087,0,0.131,0
		c0.028-0.131,0.086-0.246,0.115-0.362c0.086-0.058,0.158-0.086,0.246-0.13c0-0.072,0-0.174,0-0.246
		c0.086-0.043,0.158-0.086,0.23-0.115c0.059-0.13,0.088-0.26,0.145-0.376c0.116-0.072,0.232-0.159,0.361-0.231
		c0-0.101,0-0.173,0-0.26c0.116-0.072,0.246-0.145,0.361-0.246c0-0.043,0-0.072,0-0.115c0.088-0.029,0.174-0.087,0.232-0.116
		c0-0.086,0-0.173,0-0.26c0.245-0.188,0.49-0.405,0.752-0.593c0-0.087,0-0.174,0-0.246c0.447-0.419,0.896-0.824,1.344-1.229
		c0.188-0.246,0.391-0.491,0.593-0.737c0.087,0,0.173,0,0.245,0c0.217-0.231,0.42-0.478,0.622-0.723c0.087,0,0.159,0,0.245,0
		c0.029-0.087,0.072-0.159,0.116-0.246c0.028,0,0.087,0,0.116,0c0.086-0.13,0.158-0.245,0.246-0.376c0.086,0,0.173,0,0.26,0
		c0.072-0.115,0.145-0.245,0.246-0.361c0.057,0,0.158,0,0.23,0c0.072-0.13,0.159-0.245,0.246-0.361c0.086,0,0.174,0,0.246,0
		c0.043-0.072,0.072-0.159,0.115-0.246c0.115-0.043,0.246-0.072,0.361-0.115c0-0.043,0-0.087,0-0.13c0.087,0,0.174,0,0.26,0
		c0.029-0.072,0.059-0.159,0.116-0.246c0.116-0.043,0.245-0.072,0.361-0.115c0-0.044,0-0.087,0-0.116
		c0.159-0.043,0.333-0.101,0.478-0.13c0.057-0.087,0.101-0.159,0.145-0.246c0.158-0.043,0.303-0.072,0.491-0.115
		c0.028-0.087,0.087-0.159,0.116-0.246c0.072,0,0.145,0,0.245,0l0.231-0.245c0.086,0,0.174,0,0.246,0c0-0.044,0-0.087,0-0.131
		c0.072,0,0.173,0,0.23,0c0-0.028,0-0.072,0-0.13c0.115,0,0.188,0,0.261,0c0,0,0-0.058,0-0.101c0.087,0,0.159,0,0.245,0
		c0-0.044,0-0.087,0-0.131c0.246-0.072,0.478-0.173,0.738-0.245c0-0.029,0-0.072,0-0.116c0.129,0,0.245,0,0.361,0
		c0-0.058,0-0.087,0-0.13c0.158-0.029,0.332-0.072,0.491-0.115c0-0.044,0-0.072,0-0.131c0.116,0,0.231,0,0.361,0
		c0-0.028,0-0.086,0-0.115c0.087,0,0.159,0,0.231,0c0-0.043,0-0.087,0-0.115c0.26-0.059,0.506-0.087,0.752-0.131
		c0-0.043,0-0.072,0-0.115c0.115,0,0.23,0,0.347,0c0-0.044,0-0.087,0-0.13c0.145,0,0.261,0,0.39,0c0-0.044,0-0.072,0-0.116
		c0.116,0,0.232,0,0.348,0c0-0.043,0-0.087,0-0.115c0.13,0,0.26,0,0.361,0c0-0.058,0-0.087,0-0.13c0.13,0,0.26,0,0.375,0
		c0-0.044,0-0.087,0-0.131c1.432-0.289,2.863-0.563,4.279-0.838c0.405,0,0.811,0,1.215,0c1.199-0.348,4.67-0.203,5.725,0.115
		c0.535,0.029,1.07,0.087,1.605,0.116c0,0.043,0,0.086,0,0.13c0.23,0,0.477,0,0.723,0c0,0.028,0,0.087,0,0.115
		c0.174,0,0.332,0,0.506,0c0,0.044,0,0.072,0,0.131c0.145,0,0.318,0,0.477,0c0,0.028,0,0.072,0,0.115c0.159,0,0.332,0,0.477,0
		c0,0.029,0,0.087,0,0.115c0.174,0,0.334,0,0.507,0c0,0.044,0,0.087,0,0.131c0.116,0,0.245,0,0.361,0c0,0.043,0,0.072,0,0.13
		c0.159,0,0.333,0,0.478,0c0,0.028,0,0.072,0,0.115c0.129,0,0.245,0,0.361,0c0,0.044,0,0.072,0,0.116c0.145,0,0.26,0,0.375,0
		c0,0.043,0,0.086,0,0.13c0.131,0,0.246,0,0.361,0c0,0.043,0,0.072,0,0.115c0.088,0,0.188,0,0.246,0c0,0.044,0,0.072,0,0.131
		c0.246,0.028,0.492,0.072,0.738,0.115c0,0.029,0,0.087,0,0.115c0.072,0,0.158,0,0.244,0c0,0.059,0,0.087,0,0.131
		c0.131,0,0.246,0,0.361,0c0,0.043,0,0.086,0,0.115c0.246,0.072,0.479,0.174,0.738,0.246c0,0.043,0,0.072,0,0.115
		c0.072,0,0.158,0,0.246,0c0,0.058,0,0.087,0,0.13c0.115,0,0.246,0,0.361,0c0,0.044,0,0.087,0,0.131c0.072,0,0.174,0,0.246,0
		c0,0.043,0,0.086,0,0.086c0.086,0.015,0.172,0.015,0.23,0.015c0.059,0.102,0.088,0.174,0.131,0.261c0.086,0,0.174,0,0.246,0
		c0,0.028,0,0.086,0,0.115c0.072,0,0.158,0,0.244,0l0.246,0.246c0.088,0,0.16,0,0.246,0c0.043,0.087,0.086,0.173,0.115,0.245
		c0.174,0.044,0.332,0.087,0.492,0.131c0.043,0.072,0.072,0.145,0.131,0.245c0.158,0.029,0.316,0.072,0.477,0.116
		c0,0.043,0,0.072,0,0.115c0.115,0.044,0.246,0.087,0.361,0.13c0.057,0.087,0.086,0.159,0.129,0.246c0.088,0,0.174,0,0.246,0
		c0.043,0.072,0.072,0.159,0.131,0.246c0.057,0,0.145,0,0.23,0c0.088,0.115,0.16,0.231,0.246,0.347c0.088,0,0.16,0,0.246,0
		c0.086,0.13,0.174,0.246,0.26,0.376c0.059,0,0.16,0,0.246,0c0.102,0.159,0.23,0.332,0.348,0.491c0.086,0,0.158,0,0.244,0
		c0.174,0.202,0.334,0.405,0.492,0.622c0.088,0,0.16,0,0.232,0c0.375,0.39,0.736,0.795,1.098,1.199
		c0.305,0.304,0.65,0.492,0.867,0.868c1.418-0.333,2.863-0.651,4.279-0.983c1.807-0.607,3.658-1.215,5.479-1.836
		c0-0.029,0-0.072,0-0.115c0.088,0,0.16,0,0.246,0c0-0.044,0-0.087,0-0.131c0.115,0,0.26,0,0.377,0c0-0.028,0-0.072,0-0.115
		c0.072,0,0.158,0,0.244,0c0-0.029,0-0.072,0-0.13c0.117,0,0.246,0,0.361,0c0-0.029,0-0.072,0-0.116
		c0.174-0.043,0.334-0.072,0.479-0.13c0-0.029,0-0.072,0-0.115c0.129,0,0.246,0,0.361,0c0-0.029,0-0.072,0-0.116
		c0.188-0.043,0.346-0.072,0.506-0.115c0-0.044,0-0.087,0-0.131c0.201-0.043,0.391-0.072,0.621-0.115c0-0.043,0-0.087,0-0.13
		c0.232-0.072,0.477-0.159,0.709-0.246c0-0.043,0-0.072,0-0.115c0.072,0,0.174,0,0.246,0c0-0.044,0-0.087,0-0.116
		c0.086,0,0.172,0,0.244,0c0-0.043,0-0.101,0-0.13c0.088,0,0.174,0,0.246,0c0-0.043,0-0.087,0-0.115c0.088,0,0.174,0,0.262,0
		c0-0.044,0-0.087,0-0.131c0.057,0,0.145,0,0.23,0c0-0.043,0-0.072,0-0.115c0.086,0,0.158,0,0.246,0c0-0.043,0-0.087,0-0.13
		c0.086,0,0.158,0,0.23,0c0-0.029,0-0.087,0-0.116c0.102,0,0.16,0,0.246,0l0.26-0.245c0.072,0,0.16,0,0.246,0
		c0.029-0.087,0.072-0.159,0.115-0.261c0.246-0.058,0.492-0.145,0.723-0.231c0-0.043,0-0.072,0-0.13
		C135.658,16.835,135.963,16.661,136.396,16.561z"/>
</g>
</svg>
