<?xml version="1.0" encoding="utf-8"?>
<!-- Generator: Adobe Illustrator 14.0.0, SVG Export Plug-In . SVG Version: 6.00 Build 43363)  -->
<!DOCTYPE svg PUBLIC "-//W3C//DTD SVG 1.1//EN" "http://www.w3.org/Graphics/SVG/1.1/DTD/svg11.dtd">
<svg version="1.1" id="Ebene_1" xmlns="http://www.w3.org/2000/svg" xmlns:xlink="http://www.w3.org/1999/xlink" x="0px" y="0px"
	 width="141.73px" height="141.73px" viewBox="0 0 141.73 141.73" enable-background="new 0 0 141.73 141.73" xml:space="preserve">
<g>
	<g>
		<path fill-rule="evenodd" clip-rule="evenodd" fill="#9C9E9F" d="M70.865,1.416c-38.353,0-69.448,31.474-69.448,70.321
			c0,31.06,19.89,57.419,47.485,66.717c3.475,0.653,4.753-1.52,4.753-3.379c0-1.671-0.075-7.212-0.099-13.105
			c-19.319,4.259-23.39-8.292-23.39-8.292c-3.165-8.117-7.718-10.29-7.718-10.29c-6.303-4.359,0.484-4.259,0.484-4.259
			c6.961,0.489,10.634,7.236,10.634,7.236c6.204,10.756,16.242,7.64,20.213,5.843c0.633-4.536,2.42-7.652,4.405-9.398
			c-15.423-1.771-31.641-7.803-31.641-34.753c0-7.677,2.73-13.946,7.147-18.858c-0.707-1.784-3.077-8.934,0.695-18.62
			c0,0,5.819-1.885,19.096,7.211c5.546-1.558,11.477-2.336,17.383-2.374c5.895,0.038,11.838,0.816,17.397,2.374
			c13.252-9.096,19.07-7.211,19.07-7.211c3.785,9.687,1.402,16.836,0.684,18.62c4.467,4.912,7.158,11.182,7.158,18.858
			c0,27.001-16.254,32.957-31.727,34.702c2.494,2.174,4.715,6.458,4.715,13.018c0,9.41-0.088,16.974-0.088,19.299
			c0,1.859,1.254,4.059,4.779,3.366c27.57-9.297,47.461-35.657,47.461-66.704C140.314,32.89,109.219,1.416,70.865,1.416z"/>
		<path fill="#4F4F50" d="M27.709,102.37c-0.149,0.352-0.683,0.452-1.179,0.227c-0.508-0.239-0.794-0.717-0.621-1.068
			c0.149-0.353,0.695-0.452,1.191-0.214C27.598,101.54,27.883,102.03,27.709,102.37L27.709,102.37z M26.866,101.729"/>
		<path fill="#4F4F50" d="M30.539,105.549c-0.335,0.313-0.993,0.163-1.427-0.327c-0.459-0.478-0.546-1.143-0.199-1.457
			c0.334-0.313,0.967-0.163,1.427,0.339C30.787,104.594,30.873,105.234,30.539,105.549L30.539,105.549z M29.868,104.832"/>
		<path fill="#4F4F50" d="M33.268,109.606c-0.422,0.289-1.129,0.013-1.551-0.615c-0.435-0.629-0.435-1.369,0.013-1.672
			c0.422-0.288,1.116-0.036,1.551,0.591C33.69,108.539,33.69,109.293,33.268,109.606L33.268,109.606z M33.268,109.606"/>
		<path fill="#4F4F50" d="M37.016,113.515c-0.373,0.427-1.179,0.314-1.787-0.276c-0.608-0.554-0.77-1.37-0.397-1.784
			c0.385-0.44,1.216-0.314,1.812,0.264C37.239,112.282,37.425,113.087,37.016,113.515L37.016,113.515z M37.016,113.515"/>
		<path fill="#4F4F50" d="M42.202,115.776c-0.174,0.564-0.956,0.816-1.737,0.578c-0.794-0.239-1.303-0.88-1.142-1.445
			c0.149-0.554,0.943-0.817,1.737-0.565C41.842,114.582,42.351,115.224,42.202,115.776L42.202,115.776z M42.202,115.776"/>
		<path fill="#4F4F50" d="M47.885,116.203c0.013,0.59-0.658,1.068-1.488,1.08c-0.82,0.013-1.49-0.452-1.502-1.03
			c0-0.577,0.657-1.055,1.477-1.067C47.203,115.16,47.885,115.625,47.885,116.203L47.885,116.203z M47.885,116.203"/>
		<path fill="#4F4F50" d="M53.17,115.298c0.1,0.566-0.471,1.145-1.302,1.295c-0.794,0.15-1.55-0.188-1.65-0.754
			c-0.1-0.591,0.484-1.155,1.29-1.307C52.328,114.382,53.072,114.72,53.17,115.298L53.17,115.298z M53.17,115.298"/>
	</g>
	<path id="fuellung_1_" fill="#FFFFFF" d="M88.074,135.075c0-2.325,0.088-9.889,0.088-19.299c0-6.56-2.221-10.844-4.715-13.018
		c15.473-1.745,31.727-7.701,31.727-34.702c0-7.677-2.691-13.946-7.158-18.858c0.719-1.784,3.102-8.934-0.684-18.62
		c0,0-5.818-1.885-19.07,7.211c-5.559-1.558-11.502-2.336-17.397-2.374c-5.906,0.038-11.837,0.816-17.383,2.374
		c-13.277-9.096-19.096-7.211-19.096-7.211c-3.772,9.687-1.402,16.836-0.695,18.62c-4.417,4.912-7.147,11.182-7.147,18.858
		c0,26.95,16.218,32.981,31.641,34.753c-1.985,1.746-3.772,4.862-4.405,9.398c-3.971,1.797-14.009,4.913-20.213-5.843
		c0,0-3.672-6.747-10.634-7.236c0,0-6.787-0.101-0.484,4.259c0,0,4.554,2.173,7.718,10.29c0,0,4.07,12.551,23.39,8.292
		c0.024,5.894,0.099,11.435,0.099,13.105c0,0.967-0.36,2.01-1.179,2.7c5.844,1.608,11.999,2.539,18.388,2.539
		c6.377,0,12.508-0.931,18.364-2.539C88.422,137.097,88.074,136.042,88.074,135.075z M26.53,102.597
		c-0.508-0.239-0.794-0.717-0.621-1.068c0.149-0.353,0.695-0.452,1.191-0.214c0.497,0.226,0.782,0.716,0.608,1.056
		C27.561,102.722,27.027,102.822,26.53,102.597z M30.539,105.549c-0.335,0.313-0.993,0.163-1.427-0.327
		c-0.459-0.478-0.546-1.143-0.199-1.457c0.334-0.313,0.967-0.163,1.427,0.339C30.787,104.594,30.873,105.234,30.539,105.549z
		 M33.268,109.606c-0.422,0.289-1.129,0.013-1.551-0.615c-0.435-0.629-0.435-1.369,0.013-1.672c0.422-0.288,1.116-0.036,1.551,0.591
		C33.69,108.539,33.69,109.293,33.268,109.606z M37.016,113.515c-0.373,0.427-1.179,0.314-1.787-0.276
		c-0.608-0.554-0.77-1.37-0.397-1.784c0.385-0.44,1.216-0.314,1.812,0.264C37.239,112.282,37.425,113.087,37.016,113.515z
		 M42.202,115.776c-0.174,0.564-0.956,0.816-1.737,0.578c-0.794-0.239-1.303-0.88-1.142-1.445c0.149-0.554,0.943-0.817,1.737-0.565
		C41.842,114.582,42.351,115.224,42.202,115.776z M46.397,117.283c-0.82,0.013-1.49-0.452-1.502-1.03
		c0-0.577,0.657-1.055,1.477-1.067c0.831-0.025,1.513,0.439,1.513,1.018C47.898,116.793,47.227,117.271,46.397,117.283z
		 M51.868,116.593c-0.794,0.15-1.55-0.188-1.65-0.754c-0.1-0.591,0.484-1.155,1.29-1.307c0.819-0.15,1.563,0.188,1.662,0.766
		C53.27,115.864,52.699,116.442,51.868,116.593z"/>
</g>
</svg>
