<?xml version="1.0" encoding="utf-8"?>
<!-- Generator: Adobe Illustrator 14.0.0, SVG Export Plug-In . SVG Version: 6.00 Build 43363)  -->
<!DOCTYPE svg PUBLIC "-//W3C//DTD SVG 1.1//EN" "http://www.w3.org/Graphics/SVG/1.1/DTD/svg11.dtd">
<svg version="1.1" id="Ebene_1" xmlns="http://www.w3.org/2000/svg" xmlns:xlink="http://www.w3.org/1999/xlink" x="0px" y="0px"
	 width="377.008px" height="141.73px" viewBox="0 0 377.008 141.73" enable-background="new 0 0 377.008 141.73"
	 xml:space="preserve">
<g>
	<g>
		<path fill="#FFFFFF" d="M333.008,140.92c-8.757,0-14.938-2.659-20.043-8.621c-4.562-5.234-6.266-11.5-6.266-23.102V47.924
			c-4.212,2.101-9.577,0.327-15.732-2.177c5.079,8.887,5.365,22.05,5.365,41.563c0,22.124-0.362,36.132-7.525,44.923
			c-4.747,5.91-10.957,8.672-19.534,8.672c-3.888,0-7.894-1.121-11.285-3.159c-0.73-0.404-1.559-0.985-2.397-1.661v3.332h-24.604
			V7.214c-1.781,1.288-3.173,3.972-5.134,7.972c-3.6,7.338-8.598,17.531-22.493,21.985c2.473,1.273,4.896,3.026,7.164,5.432
			c9.489,10.053,9.593,28.247,9.691,45.842c0.009,1.554,0.019,3.107,0.033,4.648l0.028,2.789H179.67
			c0.05,5.965,0.375,15.9,2.519,19.044c0.682,1.028,2.263,2.706,5.388,2.706c2.201,0,3.736-0.823,5.303-2.843
			c0.999-1.266,1.83-4.506,1.83-7.098v-2.762h25.285l-0.13,2.885c-0.454,10.116-3.454,18.306-8.92,24.344
			c-5.254,5.812-13.117,8.761-23.368,8.761c-10.247,0-16.989-2.563-23.274-8.847c-9.204-9.203-9.967-26.42-9.967-44.752V40.907h-5
			l-21.158,45.642l24.863,52.867H74.638l24.474-52.868L78.316,40.907h-7.994v98.523H45.917v-3.442
			c-0.84,0.672-1.717,1.277-2.601,1.762c-3.409,2.045-7.408,3.171-11.267,3.171c-8.758,0-14.939-2.659-20.044-8.621
			c-4.571-5.225-6.277-11.493-6.277-23.102V38.146h5.522v71.052c0,11.583,1.808,15.917,4.931,19.489
			c4.034,4.71,8.774,6.71,15.869,6.71c2.847,0,5.933-0.877,8.468-2.407l0.112-0.065c2.071-1.121,4.427-3.521,5.843-5.4l4.967-6.598
			v12.98H64.8V35.385h17.068l23.32,51.183l-21.91,47.326h61.063l-22.258-47.327l23.725-51.182h14.05v51.937
			c0,17.126,0.639,33.138,8.349,40.847c5.27,5.27,10.521,7.229,19.369,7.229c8.624,0,15.108-2.336,19.272-6.941
			c4.068-4.496,6.514-10.542,7.286-18.001h-14.099c-0.372,2.763-1.284,5.812-2.81,7.741c-2.583,3.331-5.745,4.96-9.65,4.96
			c-4.166,0-7.8-1.876-9.971-5.146c-2.49-3.652-3.466-10.638-3.466-24.888V90.36h40.565c-0.003-0.628-0.008-1.255-0.011-1.885
			c-0.095-16.523-0.19-33.611-8.188-42.083c-4.615-4.898-10.331-6.988-19.114-6.988v-5.522c23.143,0,28.887-11.714,33.503-21.127
			c3.013-6.143,5.857-11.944,12.854-11.944h2.762v133.083h13.557v-14.707l5.132,8.581c0.862,1.442,3.89,4.289,5.489,5.162
			l0.106,0.06c2.516,1.521,5.606,2.393,8.479,2.393c6.955,0,11.514-1.98,15.239-6.622c5.875-7.21,6.298-20.469,6.298-41.45
			c0-20.85-0.423-34.03-6.286-41.242c-2.383-2.869-4.956-4.706-8.17-5.703c-7.384-1.832-14.688-1.393-20.669,5.885l-4.267-3.507
			c5.806-7.062,12.521-9.117,19.24-8.809c2.623,0.094,5,0.46,7.179,1.12c4.521,1.142,8.871,2.949,12.739,4.557
			c5.562,2.312,11.313,4.705,13.798,3.296c1.156-0.654,1.948-2.392,2.356-5.164l5.493,0.401v71.052
			c0,11.58,1.804,15.915,4.922,19.492c4.029,4.707,8.77,6.707,15.862,6.707c2.844,0,5.936-0.878,8.484-2.41l0.125-0.071
			c2.049-1.09,4.394-3.49,5.809-5.384l4.974-6.657v13.02h13.358V38.146h5.522v101.271h-24.404v-3.41
			c-0.84,0.671-1.715,1.273-2.599,1.75C340.859,139.796,336.859,140.92,333.008,140.92L333.008,140.92z"/>
	</g>
</g>
</svg>
